<?xml version="1.0" standalone="no"?>
<!DOCTYPE svg PUBLIC "-//W3C//DTD SVG 20010904//EN"
 "http://www.w3.org/TR/2001/REC-SVG-20010904/DTD/svg10.dtd">
<svg version="1.0" xmlns="http://www.w3.org/2000/svg"
 width="512.000000pt" height="512.000000pt" viewBox="0 0 512.000000 512.000000"
 preserveAspectRatio="xMidYMid meet">
<metadata>
Created by potrace 1.14, written by Peter Selinger 2001-2017
</metadata>
<g transform="translate(0.000000,512.000000) scale(0.100000,-0.100000)"
fill="#000000" stroke="none">
<path d="M2361 4499 c-395 -42 -791 -217 -1092 -485 -186 -165 -329 -351 -443
-574 -345 -680 -271 -1470 196 -2083 75 -98 248 -271 347 -347 403 -306 897
-449 1382 -400 602 61 1132 386 1462 897 190 292 307 693 307 1048 0 347 -116
750 -296 1032 -116 182 -308 394 -462 511 -407 310 -905 452 -1401 401z m380
-500 c340 -44 640 -195 875 -441 88 -93 196 -243 249 -347 124 -246 179 -563
145 -828 -42 -321 -175 -601 -393 -830 -408 -426 -1018 -566 -1568 -357 -180
68 -344 172 -487 308 -425 407 -564 1018 -356 1567 75 198 175 350 334 509
232 233 496 367 820 415 109 16 273 18 381 4z"/>
</g>
</svg>
